<svg width="656" height="99" viewBox="0 0 656 99" fill="none" xmlns="http://www.w3.org/2000/svg">
<g filter="url(#filter0_i_44_4775)">
<rect x="0.5" y="0.179688" width="655" height="98.023" rx="24" fill="#6063DD" fill-opacity="0.4"/>
<rect x="7.97839" y="6.17969" width="640.043" height="86.023" rx="20" fill="url(#paint0_linear_44_4775)"/>
<g filter="url(#filter1_d_44_4775)">
<path d="M250.129 67.5391V35.6641H253.449V67.5391H250.129ZM255.949 68.3398V35.0586H259.562V45.8984H262.629V49.5312H259.562V68.3398H255.949ZM262.805 68.2812V64.707C265.239 64.069 267.232 62.8841 268.781 61.1523C270.148 59.5898 271.066 57.6302 271.535 55.2734H263.312V51.6602H272.004V41.3281H263.742V37.7148H272.004V35H275.617V37.7148H279.328C280.461 37.7148 281.314 37.832 281.887 38.0664C283.84 38.8997 284.816 40.6185 284.816 43.2227V51.6602H286.144V55.2734H278.41C278.996 58.0339 279.868 60.1172 281.027 61.5234C282.316 63.0859 284.022 64.1471 286.144 64.707V68.2812C283.085 67.8516 280.604 66.6276 278.703 64.6094C277.479 63.3333 276.548 61.7513 275.91 59.8633C275.65 59.1081 275.344 58.0078 274.992 56.5625C274.185 59.5703 273.15 61.8555 271.887 63.418C270.363 65.293 268.521 66.6341 266.359 67.4414C265.487 67.7669 264.302 68.0469 262.805 68.2812ZM275.617 51.6602H281.281V43.6133C281.281 42.0898 280.461 41.3281 278.82 41.3281H275.617V51.6602ZM290.031 38.8281V35.0781H296.828V38.8281H290.031ZM299.055 62.8711V59.3555C299.784 59.1341 300.22 58.7044 300.363 58.0664C300.532 57.3242 300.695 56.1003 300.851 54.3945H304.445C304.172 57.1549 303.781 59.0625 303.273 60.1172C302.505 61.7578 301.099 62.6758 299.055 62.8711ZM310.637 42.3242V40.4297H299.055V36.8164H310.637V35.0586L314.25 35.0391V36.8164H325.891V40.4297H314.25V42.3242L321.691 42.3047C324.269 42.2917 325.558 43.6003 325.558 46.2305V49.6484C325.558 51.0026 325.226 52.0052 324.562 52.6562C323.989 53.2161 323.013 53.4961 321.633 53.4961H314.25V62.9102H310.637V53.4961H302.824C300.311 53.4961 299.055 52.2917 299.055 49.8828V45.8594C299.055 44.7135 299.374 43.8411 300.012 43.2422C300.702 42.6042 301.639 42.2917 302.824 42.3047L310.637 42.3242ZM310.637 49.8633V45.8984L303.976 45.8594C303.104 45.8594 302.668 46.263 302.668 47.0703V48.8281C302.668 49.5312 303.104 49.8828 303.976 49.8828L310.637 49.8633ZM314.25 49.8633L320.793 49.8828C321.288 49.8828 321.62 49.7721 321.789 49.5508C321.88 49.4206 321.926 49.1667 321.926 48.7891V47.0117C321.926 46.2435 321.548 45.8594 320.793 45.8594L314.25 45.8984V49.8633ZM320.422 54.3945H323.996L324.152 55.8008C324.321 57.4284 324.504 58.3854 324.699 58.6719C324.986 59.0755 325.35 59.2904 325.793 59.3164V62.8906C323.853 62.7214 322.44 61.7643 321.555 60.0195C321.138 59.2122 320.851 58.138 320.695 56.7969C320.669 56.5234 320.637 56.2435 320.598 55.957C320.571 55.6055 320.513 55.0846 320.422 54.3945ZM289.973 68.2617V64.7461C291.743 64.4206 292.629 63.3724 292.629 61.6016V49.043C292.629 47.9102 292.043 47.3438 290.871 47.3438H289.973V43.7109H291.867C293.338 43.7109 294.413 43.9974 295.09 44.5703C295.845 45.2214 296.223 46.3672 296.223 48.0078V61.9336C296.223 63.7435 297.225 64.6484 299.23 64.6484H325.988V68.2617H299.641C298.312 68.2617 297.225 68.0794 296.379 67.7148C295.78 67.4544 295.135 67.0052 294.445 66.3672C293.716 67.0312 293.058 67.4935 292.473 67.7539C291.808 68.0534 290.975 68.2227 289.973 68.2617ZM329.855 48.9648C332.538 48.3008 334.654 47.526 336.203 46.6406C338.586 45.2865 340.604 43.4831 342.258 41.2305C342.922 40.3451 343.254 39.7526 343.254 39.4531C343.254 39.1016 342.941 38.9258 342.316 38.9258H329.973V35.3711H343.195C344.341 35.3711 345.298 35.7552 346.066 36.5234C346.717 37.1615 347.043 38.0143 347.043 39.082C347.043 39.8893 346.776 40.7096 346.242 41.543C345.799 42.2461 345.135 43.1706 344.25 44.3164H351.672C350.734 42.9622 349.973 41.569 349.387 40.1367C348.801 38.6654 348.254 36.9076 347.746 34.8633H351.75C352.596 37.6628 353.514 39.9089 354.504 41.6016C356.769 45.4427 360.643 47.8906 366.125 48.9453V52.5781C365.357 52.4479 364.601 52.2982 363.859 52.1289C364.029 52.5846 364.113 52.9948 364.113 53.3594V57.3047C364.113 58.4505 363.807 59.3294 363.195 59.9414C362.818 60.319 362.414 60.5794 361.984 60.7227C361.555 60.8529 360.93 60.918 360.109 60.918H336.066C334.595 60.918 333.501 60.599 332.785 59.9609C332.173 59.4141 331.874 58.5091 331.887 57.2461V53.2617C331.9 52.819 332.017 52.3568 332.238 51.875C331.431 52.1615 330.643 52.4089 329.875 52.6172L329.855 48.9648ZM336.652 57.3047H359.035C359.621 57.3047 359.986 57.2396 360.129 57.1094C360.337 56.9271 360.441 56.5365 360.441 55.9375V54.8438C360.441 54.3099 360.285 53.9779 359.973 53.8477C359.725 53.7305 359.393 53.6719 358.976 53.6719H336.711C335.904 53.6719 335.5 53.9909 335.5 54.6289V56.1328C335.5 56.9141 335.884 57.3047 336.652 57.3047ZM336.808 50.0586H358.351C357.362 49.6029 356.216 48.8737 354.914 47.8711H340.617C339.263 48.8216 337.993 49.5508 336.808 50.0586ZM329.973 68.0859V64.5312H335.91V61.5234H339.504V64.5312H356.516V61.5234H360.109V64.5312H366.066V68.0859H329.973ZM330.148 45.0391V41.4258H337.57V45.0391H330.148ZM357.414 38.7305V35.1172H365.871V38.7305H357.414ZM357.805 44.6875V41.1328H366.125V44.6875H357.805ZM370.461 50.4102V46.7969H401.652V44.5898H371.75V40.9766H401.652C401.6 40.2344 401.45 39.707 401.203 39.3945C400.76 38.8477 399.849 38.5742 398.469 38.5742H371.555V34.9609H399.582C401.457 34.9609 402.876 35.4232 403.84 36.3477C404.79 37.2721 405.266 38.3333 405.266 39.5312V46.7969H406.672V50.4102H391.476V63.0273C391.476 64.5638 391.021 65.8138 390.109 66.7773C389.588 67.3372 389.048 67.7083 388.488 67.8906C387.824 68.125 386.971 68.2422 385.93 68.2422H381.789V64.6484H384.641C385.799 64.6484 386.535 64.5443 386.848 64.3359C387.525 63.9062 387.863 63.2487 387.863 62.3633V50.4102H370.461ZM370.578 68.2422V64.5703C371.581 64.5312 372.31 64.349 372.766 64.0234C373.391 63.5807 373.905 62.7474 374.308 61.5234L375.598 57.6562H379.484L378.801 59.8828C378.045 62.3047 377.44 63.8802 376.984 64.6094C376.034 66.1198 374.842 67.1615 373.41 67.7344C372.733 68.0078 371.789 68.1771 370.578 68.2422ZM370.949 55.9961V52.5H381.047V55.9961H370.949ZM396.379 55.9961V52.5H406.496V55.9961H396.379ZM397.746 57.6562H401.652L402.726 60.8789C403.312 62.6237 403.944 63.7109 404.621 64.1406C405.051 64.4141 405.734 64.5573 406.672 64.5703V68.2422C405.448 68.1641 404.497 67.9883 403.82 67.7148C402.388 67.1419 401.216 66.1263 400.305 64.668C399.784 63.8607 399.165 62.2917 398.449 59.9609L397.746 57.6562Z" fill="#2E2E2E"/>
</g>
</g>
<defs>
<filter id="filter0_i_44_4775" x="-9.5" y="-9.82031" width="675" height="118.023" filterUnits="userSpaceOnUse" color-interpolation-filters="sRGB">
<feFlood flood-opacity="0" result="BackgroundImageFix"/>
<feBlend mode="normal" in="SourceGraphic" in2="BackgroundImageFix" result="shape"/>
<feColorMatrix in="SourceAlpha" type="matrix" values="0 0 0 0 0 0 0 0 0 0 0 0 0 0 0 0 0 0 127 0" result="hardAlpha"/>
<feOffset/>
<feGaussianBlur stdDeviation="2"/>
<feComposite in2="hardAlpha" operator="arithmetic" k2="-1" k3="1"/>
<feColorMatrix type="matrix" values="0 0 0 0 1 0 0 0 0 1 0 0 0 0 1 0 0 0 0.25 0"/>
<feBlend mode="normal" in2="shape" result="effect1_innerShadow_44_4775"/>
</filter>
<filter id="filter1_d_44_4775" x="250.129" y="34.8633" width="159.843" height="36.7766" filterUnits="userSpaceOnUse" color-interpolation-filters="sRGB">
<feFlood flood-opacity="0" result="BackgroundImageFix"/>
<feColorMatrix in="SourceAlpha" type="matrix" values="0 0 0 0 0 0 0 0 0 0 0 0 0 0 0 0 0 0 127 0" result="hardAlpha"/>
<feOffset dx="2" dy="2"/>
<feGaussianBlur stdDeviation="0.65"/>
<feComposite in2="hardAlpha" operator="out"/>
<feColorMatrix type="matrix" values="0 0 0 0 1 0 0 0 0 1 0 0 0 0 1 0 0 0 1 0"/>
<feBlend mode="normal" in2="BackgroundImageFix" result="effect1_dropShadow_44_4775"/>
<feBlend mode="normal" in="SourceGraphic" in2="effect1_dropShadow_44_4775" result="shape"/>
</filter>
<linearGradient id="paint0_linear_44_4775" x1="7.97839" y1="49.1912" x2="648.022" y2="49.1912" gradientUnits="userSpaceOnUse">
<stop stop-color="#FFF1CA"/>
<stop offset="0.408654" stop-color="#FECCFD"/>
<stop offset="1" stop-color="#C5F4FD"/>
</linearGradient>
</defs>
</svg>