<svg width="344" height="107" viewBox="0 0 344 107" fill="none" xmlns="http://www.w3.org/2000/svg">
<g filter="url(#filter0_di_9_97)">
<rect x="4" width="335.173" height="98.023" rx="24" fill="#6063DD" fill-opacity="0.4" shape-rendering="crispEdges"/>
<rect x="10" y="6" width="323.173" height="86.023" rx="20" fill="#D6EAFE"/>
<g filter="url(#filter1_d_9_97)">
<path d="M123.512 54.5781V50.8086C124.671 50.6263 125.895 50.138 127.184 49.3438V40.4766H123.512V36.668H127.184V32.8789H130.797V36.668H133.297V40.4766H130.797V46.6094C131.63 46.0365 132.509 45.6458 133.434 45.4375V49.1094C132.444 49.526 131.565 50.0273 130.797 50.6133V60.9844C130.797 62.8073 130.12 64.1875 128.766 65.125C127.906 65.724 126.676 66.0234 125.074 66.0234H123.766V62.5273H124.703C125.562 62.5273 126.201 62.319 126.617 61.9023C126.995 61.5378 127.184 60.9193 127.184 60.0469V53.4453C126.207 53.9661 124.983 54.3438 123.512 54.5781ZM134.234 38.3477V34.9102H138.824V32.8203H142.438V34.9102H147.105V38.3477H140.328C140.12 38.8034 139.781 39.5065 139.312 40.457C138.948 41.2122 138.766 41.7135 138.766 41.9609C138.766 42.4036 139.098 42.625 139.762 42.625H141.91C142.6 42.625 142.945 42.3776 142.945 41.8828C142.945 41.6094 142.743 40.8997 142.34 39.7539H145.992C146.435 41.3294 146.656 42.4818 146.656 43.2109C146.656 45.099 145.341 46.043 142.711 46.043H138.531C137.307 46.043 136.292 45.6654 135.484 44.9102C135.016 44.4674 134.781 43.8164 134.781 42.957C134.781 42.3711 134.957 41.6354 135.309 40.75C135.4 40.5547 135.484 40.3529 135.562 40.1445C135.732 39.7409 135.986 39.1419 136.324 38.3477H134.234ZM134.352 66.0234V50.75C134.352 49.5 134.645 48.5755 135.23 47.9766C135.79 47.3906 136.461 47.0977 137.242 47.0977H143.453C144.651 47.0977 145.536 47.3906 146.109 47.9766C146.695 48.5885 146.988 49.3112 146.988 50.1445V62.332C146.988 64.832 145.908 66.082 143.746 66.082H142.34V63.25H142.965C143.486 63.25 143.746 62.9049 143.746 62.2148V61.8047H137.613V66.0234H134.352ZM137.613 58.7383H143.746V56.043H137.613V58.7383ZM137.613 52.918H143.746V51.0625C143.746 50.3854 143.401 50.0469 142.711 50.0469H138.707C137.978 50.0469 137.613 50.444 137.613 51.2383V52.918ZM147.828 43.9531V40.3984C148.492 39.526 148.935 38.6992 149.156 37.918C149.586 36.4076 149.801 34.9753 149.801 33.6211V32.4297H153.16L153.082 33.8359L152.984 35.3203H159.547V38.9336H158.57V44.6367C158.57 49.9362 157.62 54.4805 155.719 58.2695C156.487 59.4284 157.118 60.3008 157.613 60.8867C158.173 61.5508 158.863 62.1237 159.684 62.6055V65.9453C158.889 65.6849 158.206 65.3854 157.633 65.0469C156.487 64.3307 155.289 63.1003 154.039 61.3555C152.984 62.7747 151.982 63.8294 151.031 64.5195C150.224 65.1055 149.26 65.5807 148.141 65.9453V62.6836C149.156 62.0456 149.957 61.375 150.543 60.6719C151.012 60.125 151.617 59.2396 152.359 58.0156C150.771 54.1745 149.749 49.7539 149.293 44.7539H152.359C152.724 48.543 153.251 51.5768 153.941 53.8555C155.035 50.8607 155.582 47.3906 155.582 43.4453V38.9336H152.359C151.878 40.2227 151.344 41.2057 150.758 41.8828C149.964 42.8203 148.987 43.5104 147.828 43.9531ZM192.008 54.4609V44.4805C192.008 43.3086 192.164 42.4818 192.477 42C193.167 40.9453 194.085 40.418 195.23 40.418H207.184C208.277 40.418 209.156 40.7305 209.82 41.3555C210.471 41.9674 210.797 42.6836 210.797 43.5039V55.125C210.797 56.3229 210.458 57.2214 209.781 57.8203C209.052 58.4323 208.245 58.7383 207.359 58.7383H197.789C195.484 58.7383 194.091 58.5755 193.609 58.25C193.01 57.8594 192.594 57.4297 192.359 56.9609C192.125 56.4922 192.008 55.6589 192.008 54.4609ZM197.32 55.125H205.914C206.292 55.125 206.604 54.9883 206.852 54.7148C207.073 54.4544 207.184 54.1419 207.184 53.7773V45.8281C207.184 45.0859 207.053 44.5846 206.793 44.3242C206.585 44.1289 206.266 44.0312 205.836 44.0312H197.125C196.122 44.0312 195.621 44.474 195.621 45.3594V53.7773C195.621 54.6758 196.188 55.125 197.32 55.125ZM183.98 59.8516V38.6211C183.98 37.1237 184.215 36.0039 184.684 35.2617C185.673 33.6992 187.197 32.918 189.254 32.918H213.297C214.794 32.918 215.875 33.1328 216.539 33.5625C218.154 34.5911 218.961 36.1471 218.961 38.2305V60.2617C218.961 61.7852 218.727 62.918 218.258 63.6602C217.268 65.2227 215.693 66.0039 213.531 66.0039H189.742C188.154 66.0039 187.008 65.7695 186.305 65.3008C185.458 64.7409 184.853 64.0703 184.488 63.2891C184.15 62.5599 183.98 61.4141 183.98 59.8516ZM190.465 62.3906H212.477C213.427 62.3906 214.039 62.2995 214.312 62.1172C215.003 61.6484 215.348 60.8216 215.348 59.6367V39.6367C215.348 38.3607 215.113 37.4883 214.645 37.0195C214.332 36.694 213.674 36.5312 212.672 36.5312H190.738C189.645 36.5312 188.941 36.6354 188.629 36.8438C188.251 37.0781 187.991 37.3516 187.848 37.6641C187.678 38.0156 187.594 38.569 187.594 39.3242V58.8945C187.594 60.3138 187.75 61.2318 188.062 61.6484C188.44 62.1432 189.241 62.3906 190.465 62.3906Z" fill="#2E2E2E"/>
</g>
</g>
<defs>
<filter id="filter0_di_9_97" x="-6" y="-10" width="355.173" height="118.023" filterUnits="userSpaceOnUse" color-interpolation-filters="sRGB">
<feFlood flood-opacity="0" result="BackgroundImageFix"/>
<feColorMatrix in="SourceAlpha" type="matrix" values="0 0 0 0 0 0 0 0 0 0 0 0 0 0 0 0 0 0 127 0" result="hardAlpha"/>
<feOffset dy="4"/>
<feGaussianBlur stdDeviation="2"/>
<feComposite in2="hardAlpha" operator="out"/>
<feColorMatrix type="matrix" values="0 0 0 0 0 0 0 0 0 0 0 0 0 0 0 0 0 0 0.41 0"/>
<feBlend mode="normal" in2="BackgroundImageFix" result="effect1_dropShadow_9_97"/>
<feBlend mode="normal" in="SourceGraphic" in2="effect1_dropShadow_9_97" result="shape"/>
<feColorMatrix in="SourceAlpha" type="matrix" values="0 0 0 0 0 0 0 0 0 0 0 0 0 0 0 0 0 0 127 0" result="hardAlpha"/>
<feOffset/>
<feGaussianBlur stdDeviation="2"/>
<feComposite in2="hardAlpha" operator="arithmetic" k2="-1" k3="1"/>
<feColorMatrix type="matrix" values="0 0 0 0 1 0 0 0 0 1 0 0 0 0 1 0 0 0 0.25 0"/>
<feBlend mode="normal" in2="shape" result="effect2_innerShadow_9_97"/>
</filter>
<filter id="filter1_d_9_97" x="123.512" y="32.4297" width="98.7492" height="36.9523" filterUnits="userSpaceOnUse" color-interpolation-filters="sRGB">
<feFlood flood-opacity="0" result="BackgroundImageFix"/>
<feColorMatrix in="SourceAlpha" type="matrix" values="0 0 0 0 0 0 0 0 0 0 0 0 0 0 0 0 0 0 127 0" result="hardAlpha"/>
<feOffset dx="2" dy="2"/>
<feGaussianBlur stdDeviation="0.65"/>
<feComposite in2="hardAlpha" operator="out"/>
<feColorMatrix type="matrix" values="0 0 0 0 1 0 0 0 0 1 0 0 0 0 1 0 0 0 1 0"/>
<feBlend mode="normal" in2="BackgroundImageFix" result="effect1_dropShadow_9_97"/>
<feBlend mode="normal" in="SourceGraphic" in2="effect1_dropShadow_9_97" result="shape"/>
</filter>
</defs>
</svg>