<svg width="344" height="107" viewBox="0 0 344 107" fill="none" xmlns="http://www.w3.org/2000/svg">
<g filter="url(#filter0_di_46_3)">
<rect x="4" width="335.173" height="98.023" rx="24" fill="#6063DD" fill-opacity="0.4" shape-rendering="crispEdges"/>
<rect x="10" y="6" width="323.173" height="86.023" rx="20" fill="url(#paint0_linear_46_3)"/>
<g filter="url(#filter1_d_46_3)">
<path d="M93.9531 66.0234V62.6836C94.3307 62.6185 94.5716 62.5078 94.6758 62.3516C94.7669 62.2214 94.819 61.7917 94.832 61.0625L95.0469 41.3164H98.3867L98.1719 60.5547C98.1458 62.2734 97.9375 63.4323 97.5469 64.0312C97.026 64.7995 96.4076 65.3464 95.6914 65.6719C95.2878 65.8542 94.7083 65.9714 93.9531 66.0234ZM94.3828 39.2852V35.6719H99.7148V32.918H103.328V35.6719H108.211V39.2852H103.328V66.0625H99.7148V39.2852H94.3828ZM104.949 66.0625V41.1992H107.957V66.0625H104.949ZM109.266 64.2461V61.3555C113.276 60.5872 116.466 58.8945 118.836 56.2773V54.2266C116.479 56.1146 114.52 57.3971 112.957 58.0742C111.889 58.5299 110.659 58.888 109.266 59.1484V56.2773C110.984 55.8346 112.605 55.1641 114.129 54.2656C115.132 53.6797 116.694 52.5078 118.816 50.75C118.595 49.9688 118.152 49.5781 117.488 49.5781C117.462 49.5781 117.41 49.5781 117.332 49.5781C117.033 49.7995 116.316 50.3268 115.184 51.1602C113.413 52.4622 111.505 53.3281 109.461 53.7578V50.75C110.659 50.3854 111.596 50.0273 112.273 49.6758C112.898 49.3633 113.621 48.888 114.441 48.25H112.352C111.375 48.25 110.6 47.957 110.027 47.3711C109.572 46.8763 109.344 46.2969 109.344 45.6328V42.2344C109.344 41.6615 109.591 41.1276 110.086 40.6328C110.607 40.099 111.342 39.832 112.293 39.832H123.055C123.328 39.4935 123.536 39.2396 123.68 39.0703C124.109 38.5755 124.311 38.237 124.285 38.0547C124.259 37.7682 123.979 37.625 123.445 37.625H115.125C114.305 38.4193 113.497 38.9987 112.703 39.3633C111.922 39.7148 110.88 39.9948 109.578 40.2031V36.7266C110.724 36.5182 111.603 36.1602 112.215 35.6523C112.905 35.0794 113.491 34.1224 113.973 32.7812H117.625L117.469 33.4648L117.273 34.2656H124.051C125.522 34.2656 126.583 34.5781 127.234 35.2031C127.742 35.6979 127.996 36.3034 127.996 37.0195C127.996 37.7487 127.697 38.6732 127.098 39.793C128.191 40.0273 128.888 40.2812 129.188 40.5547C129.695 40.9974 129.949 41.5117 129.949 42.0977V45.8086C129.949 46.3945 129.715 46.9154 129.246 47.3711C128.647 47.957 127.781 48.25 126.648 48.25H121.473C121.954 49.0703 122.241 49.7474 122.332 50.2812C122.371 50.5417 122.417 51.1797 122.469 52.1953C124.148 51.0885 125.294 50.3724 125.906 50.0469C127.26 49.3047 128.621 48.8815 129.988 48.7773V51.8047C129.064 51.8958 128.309 52.0846 127.723 52.3711C127.007 52.7227 125.971 53.3672 124.617 54.3047C125.19 56.2188 125.6 57.4948 125.848 58.1328C126.395 59.513 127.182 60.6328 128.211 61.4922C128.693 61.8828 129.285 62.1432 129.988 62.2734V65.8477C127.905 65.2747 126.141 64.0247 124.695 62.0977C123.927 61.069 123.172 59.4674 122.43 57.293C122.443 58.5169 122.449 59.3503 122.449 59.793C122.449 61.8112 122.13 63.2695 121.492 64.168C120.62 65.4049 119.018 66.0234 116.688 66.0234H114.773V63.0547H116.316C117.566 63.0547 118.335 62.6315 118.621 61.7852C118.725 61.4596 118.797 60.8411 118.836 59.9297C117.013 61.388 115.444 62.3971 114.129 62.957C112.853 63.5039 111.232 63.9336 109.266 64.2461ZM117.859 45.457V42.5664H113.641C113.016 42.5664 112.703 42.8398 112.703 43.3867V44.793C112.703 45.2487 112.964 45.4766 113.484 45.4766L117.859 45.457ZM121.473 45.457L125.848 45.4766C126.408 45.4766 126.688 45.1966 126.688 44.6367V43.4258C126.688 42.8659 126.382 42.5859 125.77 42.5859L121.473 42.5664V45.457ZM153.914 65.9062V62.3711C154.708 62.319 155.353 62.0391 155.848 61.5312C156.355 60.9974 156.609 60.2878 156.609 59.4023V40.3203C156.609 36.8307 158.595 35.0859 162.566 35.0859H171.805V32.7617H175.477V35.1445H184.988C186.329 35.1445 187.462 35.5612 188.387 36.3945C189.428 37.332 189.949 38.5234 189.949 39.9688V42.9375H186.355V41.082C186.355 40.4049 186.167 39.8711 185.789 39.4805C185.32 38.9987 184.663 38.7578 183.816 38.7578H175.477V45.0273H185.262C186.772 45.0273 187.918 45.3919 188.699 46.1211C189.168 46.5768 189.402 47.1758 189.402 47.918C189.402 49.3503 188.504 51.0299 186.707 52.957C185.001 54.806 182.71 56.7917 179.832 58.9141C181.564 59.9688 183.217 60.8086 184.793 61.4336C186.473 62.0977 188.224 62.5078 190.047 62.6641V66.2969C188.029 66.1146 186.368 65.8216 185.066 65.418C182.605 64.6628 179.715 63.25 176.395 61.1797C173.517 62.8333 170.783 64.0638 168.191 64.8711C166.225 65.4831 163.816 65.9583 160.965 66.2969V62.5859C163.322 62.2214 165.294 61.7656 166.883 61.2188C169.057 60.4505 170.952 59.6367 172.566 58.7773L171.238 58.0156C167.944 56.0885 166.089 55.0273 165.672 54.832C164.669 54.3633 163.302 54.0768 161.57 53.9727V50.3789C162.768 50.3919 163.738 50.4635 164.48 50.5938C165.874 50.8542 167.723 51.6419 170.027 52.957C170.717 53.3477 172.651 54.526 175.828 56.4922L176.199 56.707C180.197 54.0378 183.107 51.3424 184.93 48.6211H160.223V59.1875C160.223 61.1276 159.656 62.6966 158.523 63.8945C157.312 65.2096 155.776 65.8802 153.914 65.9062ZM160.223 45.0273H171.805V38.6992H162.938C161.883 38.6992 161.115 38.9727 160.633 39.5195C160.359 39.832 160.223 40.1901 160.223 40.5938V45.0273ZM230.164 50.0273H226.648V47.957H231.531L232.195 46.9219H226.648V44.832H233.484C233.628 44.6107 233.732 44.4479 233.797 44.3438C233.992 44.0573 234.129 43.862 234.207 43.7578C234.298 43.6276 234.344 43.5234 234.344 43.4453C234.344 43.0417 233.973 42.8398 233.23 42.8398H230.379C229.428 43.4779 228.693 43.875 228.172 44.0312C227.69 44.1875 227.182 44.2786 226.648 44.3047V41.7266C227.443 41.4141 228.016 41.1276 228.367 40.8672C228.68 40.6328 228.986 40.2292 229.285 39.6562H226.473V37.3906C226.473 36.5833 226.831 35.8542 227.547 35.2031C228.146 34.6693 228.849 34.4023 229.656 34.4023H236.453V32.8984H240.066V34.4023H246.492C247.495 34.4023 248.315 34.6953 248.953 35.2812C249.669 35.9453 250.027 36.7201 250.027 37.6055V39.6562H246.434V39.2852C246.434 38.8164 246.336 38.4974 246.141 38.3281C245.919 38.1328 245.542 38.0352 245.008 38.0352H231.336C230.477 38.0352 230.047 38.3477 230.047 38.9727V39.5977H232.781C232.612 39.9362 232.43 40.2552 232.234 40.5547H235.203C236.154 40.5547 236.889 40.8216 237.41 41.3555C237.788 41.7331 237.977 42.2214 237.977 42.8203C237.977 43.3542 237.833 43.849 237.547 44.3047L234.246 49.5586H242.352C241.388 48.1784 240.659 46.7656 240.164 45.3203C239.513 43.4062 238.966 41.4987 238.523 39.5977H242.078L242.352 40.5547H246.883C249.031 40.5547 250.105 41.3229 250.105 42.8594C250.105 43.3281 249.995 43.7839 249.773 44.2266C249.643 44.4609 249.116 45.3789 248.191 46.9805C247.658 47.8919 247.182 48.7188 246.766 49.4609C247.625 50.1641 248.745 50.5872 250.125 50.7305V53.543C248.745 53.4518 247.332 53.1263 245.887 52.5664H231.863C230.548 53.4388 229.031 53.875 227.312 53.875H226.355V51.3555H227.234C228.341 51.3555 229.318 50.9128 230.164 50.0273ZM244.578 46.9219C244.969 46.2578 245.249 45.7565 245.418 45.418C245.639 44.9753 245.776 44.7148 245.828 44.6367C246.062 44.2331 246.18 43.9792 246.18 43.875C246.18 43.5625 245.893 43.4062 245.32 43.4062H243.133C243.51 44.7083 243.992 45.8802 244.578 46.9219ZM213.914 40.5547V36.7656H218.328V32.9766H221.941V36.7656H224.891V40.5547H221.941V46.6484C222.918 46.1667 223.855 45.7891 224.754 45.5156V49.207C223.816 49.5846 222.879 50.0859 221.941 50.7109V61.1211C221.941 62.931 221.264 64.3047 219.91 65.2422C219.051 65.8411 217.82 66.1406 216.219 66.1406H214.91V62.5273H215.848C217.501 62.5273 218.328 61.7005 218.328 60.0469V53.3281C217.352 53.7839 216.648 54.0833 216.219 54.2266C215.685 54.3958 214.936 54.5456 213.973 54.6758V50.8867C214.858 50.7695 215.561 50.6133 216.082 50.418C216.72 50.1966 217.469 49.793 218.328 49.207V40.5547H213.914ZM226.414 58.1719V54.9492H250.086V58.1719H240.203V62.332C240.203 63.5039 239.878 64.4154 239.227 65.0664C238.549 65.7174 237.768 66.043 236.883 66.043H234.188V62.4297H235.105C236.095 62.4297 236.59 62.0326 236.59 61.2383V58.1719H226.414ZM226.648 66.043V62.4297C227.586 62.2995 228.25 62.0065 228.641 61.5508C229.057 61.069 229.324 60.2617 229.441 59.1289H233.094C232.898 60.7695 232.632 61.9219 232.293 62.5859C231.16 64.8125 229.279 65.9648 226.648 66.043ZM243.562 59.1289H247.176C247.267 60.2096 247.482 60.9779 247.82 61.4336C248.25 61.9935 248.934 62.3255 249.871 62.4297V66.043C247.632 65.9909 245.887 65.0078 244.637 63.0938C243.986 62.1172 243.628 60.7956 243.562 59.1289Z" fill="#2E2E2E"/>
</g>
</g>
<defs>
<filter id="filter0_di_46_3" x="-6" y="-10" width="355.173" height="118.023" filterUnits="userSpaceOnUse" color-interpolation-filters="sRGB">
<feFlood flood-opacity="0" result="BackgroundImageFix"/>
<feColorMatrix in="SourceAlpha" type="matrix" values="0 0 0 0 0 0 0 0 0 0 0 0 0 0 0 0 0 0 127 0" result="hardAlpha"/>
<feOffset dy="4"/>
<feGaussianBlur stdDeviation="2"/>
<feComposite in2="hardAlpha" operator="out"/>
<feColorMatrix type="matrix" values="0 0 0 0 0 0 0 0 0 0 0 0 0 0 0 0 0 0 0.41 0"/>
<feBlend mode="normal" in2="BackgroundImageFix" result="effect1_dropShadow_46_3"/>
<feBlend mode="normal" in="SourceGraphic" in2="effect1_dropShadow_46_3" result="shape"/>
<feColorMatrix in="SourceAlpha" type="matrix" values="0 0 0 0 0 0 0 0 0 0 0 0 0 0 0 0 0 0 127 0" result="hardAlpha"/>
<feOffset/>
<feGaussianBlur stdDeviation="2"/>
<feComposite in2="hardAlpha" operator="arithmetic" k2="-1" k3="1"/>
<feColorMatrix type="matrix" values="0 0 0 0 1 0 0 0 0 1 0 0 0 0 1 0 0 0 0.25 0"/>
<feBlend mode="normal" in2="shape" result="effect2_innerShadow_46_3"/>
</filter>
<filter id="filter1_d_46_3" x="93.9531" y="32.7617" width="159.472" height="36.8352" filterUnits="userSpaceOnUse" color-interpolation-filters="sRGB">
<feFlood flood-opacity="0" result="BackgroundImageFix"/>
<feColorMatrix in="SourceAlpha" type="matrix" values="0 0 0 0 0 0 0 0 0 0 0 0 0 0 0 0 0 0 127 0" result="hardAlpha"/>
<feOffset dx="2" dy="2"/>
<feGaussianBlur stdDeviation="0.65"/>
<feComposite in2="hardAlpha" operator="out"/>
<feColorMatrix type="matrix" values="0 0 0 0 1 0 0 0 0 1 0 0 0 0 1 0 0 0 1 0"/>
<feBlend mode="normal" in2="BackgroundImageFix" result="effect1_dropShadow_46_3"/>
<feBlend mode="normal" in="SourceGraphic" in2="effect1_dropShadow_46_3" result="shape"/>
</filter>
<linearGradient id="paint0_linear_46_3" x1="10" y1="49.0115" x2="333.173" y2="49.0115" gradientUnits="userSpaceOnUse">
<stop stop-color="#F2D6FE"/>
<stop offset="0.408654" stop-color="#D6D7FF"/>
<stop offset="1" stop-color="#C8F4FF"/>
</linearGradient>
</defs>
</svg>