<svg width="344" height="107" viewBox="0 0 344 107" fill="none" xmlns="http://www.w3.org/2000/svg">
<g filter="url(#filter0_di_9_101)">
<rect x="4" y="0.0229492" width="335.173" height="98.023" rx="24" fill="#6063DD" fill-opacity="0.4" shape-rendering="crispEdges"/>
<rect x="10" y="6.02295" width="323.173" height="86.023" rx="20" fill="#F2D6FE"/>
<g filter="url(#filter1_d_9_101)">
<path d="M138.875 65.9648V62.5078C139.344 62.4036 139.702 62.1497 139.949 61.7461C140.223 61.3034 140.359 60.5612 140.359 59.5195L140.34 45.457C140.34 44.3763 140.822 43.3411 141.785 42.3516C142.723 41.401 143.751 40.9258 144.871 40.9258H152.488L154.148 38.4258C154.305 38.1914 154.383 37.957 154.383 37.7227C154.383 37.3581 154.135 37.1693 153.641 37.1562H145.652C144.858 38.7578 144.012 39.8581 143.113 40.457C142.371 40.9518 141.329 41.2448 139.988 41.3359V37.9961C140.509 37.8789 140.9 37.7031 141.16 37.4688C141.421 37.2214 141.707 36.7721 142.02 36.1211C142.423 35.2617 142.827 34.1745 143.23 32.8594H147.176L146.844 33.8945H154.754C156.668 33.8945 157.938 34.1484 158.562 34.6562C159.031 35.0339 159.266 35.5417 159.266 36.1797C159.266 36.8828 159.018 37.599 158.523 38.3281L156.57 41.1797C158.797 42.1172 159.91 43.6341 159.91 45.7305V60.7109C159.91 62.2474 159.611 63.3802 159.012 64.1094C158.53 64.7214 157.872 65.1771 157.039 65.4766C156.219 65.763 155.477 65.9062 154.812 65.9062C154.656 65.9062 154.493 65.9062 154.324 65.9062V62.5469C155.001 62.3906 155.457 62.2148 155.691 62.0195C156.121 61.6549 156.329 61.1471 156.316 60.4961L156.297 59.8125H151.883V66.0039H148.27V59.8125H143.973L143.914 60.6914C143.81 62.332 143.354 63.5885 142.547 64.4609C141.805 65.2943 140.581 65.7956 138.875 65.9648ZM143.973 56.1992H148.27V52.2734H143.973V56.1992ZM143.973 48.6797H148.27V44.5H146.082C145.535 44.487 145.066 44.6693 144.676 45.0469C144.194 45.5026 143.953 46.0234 143.953 46.6094L143.973 48.6797ZM151.883 56.1992H156.297V52.2734H151.883V56.1992ZM151.883 48.6797H156.297L156.316 46.6484C156.316 46.0234 156.082 45.5091 155.613 45.1055C155.118 44.6888 154.565 44.487 153.953 44.5H151.883V48.6797ZM123.797 52.0391V47.2148C125.19 45.7956 126.115 43.9727 126.57 41.7461C126.779 40.7305 126.954 39.1745 127.098 37.0781H123.934V33.4648H137.508V37.0781H130.848C130.6 39.3698 130.32 41.3555 130.008 43.0352H134.324C135.21 43.0352 135.952 43.3346 136.551 43.9336C137.189 44.5716 137.508 45.4245 137.508 46.4922L137.527 62.5859C137.527 63.4062 137.28 64.1159 136.785 64.7148C136.095 65.5352 135.236 65.9453 134.207 65.9453H128.836C127.964 65.9453 127.202 65.6198 126.551 64.9688C125.9 64.3177 125.574 63.5169 125.574 62.5664V50.9258C125.014 51.3034 124.422 51.6745 123.797 52.0391ZM133.914 61.082V47.8594C133.914 47.4427 133.777 47.0977 133.504 46.8242C133.309 46.6419 133.042 46.5508 132.703 46.5508H130.34C129.572 46.5508 129.188 47.0456 129.188 48.0352V61.1797C129.188 61.9609 129.526 62.3516 130.203 62.3516H132.859C133.224 62.3516 133.504 62.1888 133.699 61.8633C133.842 61.6289 133.914 61.3685 133.914 61.082ZM183.816 66.1211V62.4297C183.934 62.4297 184.044 62.4297 184.148 62.4297C185.151 62.4297 185.652 61.7656 185.652 60.4375V50.0664H189.383V60.9453C189.826 61.5312 190.288 61.9414 190.77 62.1758C191.473 62.5143 192.449 62.6836 193.699 62.6836H200.105V47.1367H183.816V43.5234H219.969V47.1367H203.719V52.2734H219.969V55.8867H203.719V62.6836H220.027V66.1211H193.66C191.733 66.1211 190.301 65.9388 189.363 65.5742C189.012 65.444 188.595 65.2031 188.113 64.8516C187.54 65.2422 187.098 65.5221 186.785 65.6914C186.238 65.9909 185.548 66.1406 184.715 66.1406C184.48 66.1406 184.181 66.1341 183.816 66.1211ZM183.816 41.0039L183.855 38.8359C183.868 37.8464 184.389 36.8828 185.418 35.9453C186.368 35.0729 187.488 34.6367 188.777 34.6367H200.105V32.8594H203.738V34.6367H213.699C215.04 34.6367 215.887 34.6823 216.238 34.7734C217.306 35.0599 218.172 35.5938 218.836 36.375C219.526 37.2083 219.871 37.9635 219.871 38.6406V40.9453L216.355 41.0039V40.0469C216.355 39.474 216.089 38.9987 215.555 38.6211C215.19 38.3607 214.689 38.2305 214.051 38.2305H189.461C188.094 38.2305 187.417 39.1549 187.43 41.0039H183.816Z" fill="#2E2E2E"/>
</g>
</g>
<defs>
<filter id="filter0_di_9_101" x="-6" y="-9.97705" width="355.173" height="118.023" filterUnits="userSpaceOnUse" color-interpolation-filters="sRGB">
<feFlood flood-opacity="0" result="BackgroundImageFix"/>
<feColorMatrix in="SourceAlpha" type="matrix" values="0 0 0 0 0 0 0 0 0 0 0 0 0 0 0 0 0 0 127 0" result="hardAlpha"/>
<feOffset dy="4"/>
<feGaussianBlur stdDeviation="2"/>
<feComposite in2="hardAlpha" operator="out"/>
<feColorMatrix type="matrix" values="0 0 0 0 0 0 0 0 0 0 0 0 0 0 0 0 0 0 0.41 0"/>
<feBlend mode="normal" in2="BackgroundImageFix" result="effect1_dropShadow_9_101"/>
<feBlend mode="normal" in="SourceGraphic" in2="effect1_dropShadow_9_101" result="shape"/>
<feColorMatrix in="SourceAlpha" type="matrix" values="0 0 0 0 0 0 0 0 0 0 0 0 0 0 0 0 0 0 127 0" result="hardAlpha"/>
<feOffset/>
<feGaussianBlur stdDeviation="2"/>
<feComposite in2="hardAlpha" operator="arithmetic" k2="-1" k3="1"/>
<feColorMatrix type="matrix" values="0 0 0 0 1 0 0 0 0 1 0 0 0 0 1 0 0 0 0.25 0"/>
<feBlend mode="normal" in2="shape" result="effect2_innerShadow_9_101"/>
</filter>
<filter id="filter1_d_9_101" x="123.797" y="32.8594" width="99.5305" height="36.5812" filterUnits="userSpaceOnUse" color-interpolation-filters="sRGB">
<feFlood flood-opacity="0" result="BackgroundImageFix"/>
<feColorMatrix in="SourceAlpha" type="matrix" values="0 0 0 0 0 0 0 0 0 0 0 0 0 0 0 0 0 0 127 0" result="hardAlpha"/>
<feOffset dx="2" dy="2"/>
<feGaussianBlur stdDeviation="0.65"/>
<feComposite in2="hardAlpha" operator="out"/>
<feColorMatrix type="matrix" values="0 0 0 0 1 0 0 0 0 1 0 0 0 0 1 0 0 0 1 0"/>
<feBlend mode="normal" in2="BackgroundImageFix" result="effect1_dropShadow_9_101"/>
<feBlend mode="normal" in="SourceGraphic" in2="effect1_dropShadow_9_101" result="shape"/>
</filter>
</defs>
</svg>